<svg width="598" height="109" viewBox="0 0 598 109" fill="none" xmlns="http://www.w3.org/2000/svg">
<g clip-path="url(#clip0_1_13)">
<path d="M90.63 1.42001C88.84 1.42001 87.33 2.06001 86.12 3.33001C84.9 4.60001 84.3 6.11001 84.3 7.84001V45.06C84.3 46.38 83.23 47.46 81.9 47.46H15.16C13.84 47.46 12.76 46.39 12.76 45.06V7.84001C12.76 6.10001 12.14 4.60001 10.89 3.33001C9.65 2.06001 8.16 1.42001 6.42 1.42001C4.68 1.42001 3.18 2.06001 1.91 3.33001C0.64 4.60001 0 6.11001 0 7.84001V101.3C0 103.04 0.64 104.54 1.91 105.81C3.18 107.08 4.69 107.72 6.42 107.72C8.15 107.72 9.65 107.08 10.89 105.81C12.13 104.54 12.76 103.03 12.76 101.3V62.61C12.76 61.29 13.83 60.21 15.16 60.21H81.9C83.22 60.21 84.3 61.28 84.3 62.61V101.3C84.3 103.04 84.91 104.54 86.12 105.81C87.34 107.08 88.84 107.72 90.63 107.72C92.42 107.72 93.87 107.08 95.14 105.81C96.41 104.54 97.05 103.03 97.05 101.3V7.84001C97.05 6.10001 96.41 4.60001 95.14 3.33001C93.87 2.06001 92.36 1.42001 90.63 1.42001Z" fill="#2E1A47"></path>
<path d="M460.55 1.42001C457.13 1.42001 454.56 2.81001 452.82 5.59001L414.42 63.79C413.47 65.22 411.37 65.23 410.42 63.79L371.92 5.58001C370 2.70001 367.56 1.32001 364.59 1.42001C361.16 1.54001 358.46 4.41001 358.46 7.84001V101.3C358.46 104.76 361.21 107.66 364.67 107.72C369.04 107.79 371.22 105.65 371.22 101.3V35.41C371.22 33.04 374.29 32.11 375.6 34.07L405.16 78.06C407.01 80.78 409.15 82.14 411.58 82.14C414.88 82.14 417.45 80.78 419.31 78.06L448.69 34.32C450.01 32.36 453.07 33.29 453.07 35.66V101.3C453.07 104.76 455.82 107.66 459.28 107.72C463.65 107.79 465.83 105.65 465.83 101.3V7.84001C465.83 3.56001 464.06 1.42001 460.54 1.42001H460.55Z" fill="#2E1A47"></path>
<path d="M591.38 94.97H536.92C535.6 94.97 534.52 93.9 534.52 92.57V62.78C534.52 61.46 535.59 60.38 536.92 60.38H570.9C574.36 60.38 577.26 57.64 577.32 54.17C577.39 49.8 575.25 47.61 570.9 47.61H536.92C535.6 47.61 534.52 46.54 534.52 45.21V16.57C534.52 15.25 535.59 14.17 536.92 14.17H591.38C594.84 14.17 597.74 11.42 597.8 7.96C597.87 3.59 595.73 1.41 591.38 1.41H528.18C524.63 1.41 521.76 4.29 521.76 7.83V101.3C521.76 104.85 524.64 107.72 528.18 107.72H591.38C594.84 107.72 597.74 104.97 597.8 101.51C597.87 97.14 595.73 94.96 591.38 94.96V94.97Z" fill="#2E1A47"></path>
<path d="M301.83 51.58C299.17 35.81 291.62 17.75 281.1 2.04999C280.4 1.00999 279.34 0.309988 278.11 0.0799878C276.89 -0.150012 275.65 0.129988 274.64 0.839988L272.39 2.42999C270.35 3.86999 269.84 6.61999 271.22 8.68999C280.7 22.87 287.75 39.65 290.1 53.59C290.18 54.07 290.18 54.78 290.1 55.27C287.76 69.17 280.71 85.92 271.24 100.08C269.86 102.15 270.37 104.9 272.41 106.34L274.66 107.93C275.44 108.48 276.35 108.77 277.29 108.77C277.57 108.77 277.85 108.74 278.13 108.69C279.36 108.46 280.42 107.76 281.12 106.72C291.64 91.03 299.19 73 301.84 57.27C302.16 55.45 302.16 53.38 301.84 51.57L301.83 51.58Z" fill="#2E1A47"></path>
<path d="M183.82 100.09C174.34 85.91 167.29 69.12 164.94 55.18C164.86 54.71 164.86 54 164.94 53.51C167.28 39.61 174.33 22.86 183.8 8.69C185.18 6.62 184.67 3.87 182.63 2.43L180.38 0.84C179.36 0.12 178.13 -0.15 176.91 0.0799996C175.68 0.31 174.62 1.01 173.92 2.05C163.4 17.74 155.85 35.77 153.2 51.5C152.88 53.32 152.88 55.4 153.2 57.2C155.85 72.97 163.41 91.03 173.93 106.74C174.63 107.78 175.69 108.48 176.92 108.71C177.2 108.76 177.48 108.79 177.76 108.79C178.7 108.79 179.61 108.5 180.39 107.95L182.64 106.36C184.68 104.92 185.19 102.17 183.81 100.1L183.82 100.09Z" fill="#2E1A47"></path>
<path d="M256.15 49.85C255.49 48.26 253.95 47.23 252.23 47.23H227.74L220.43 60.45H220.5L197.54 102.01C196.68 103.88 197.28 106.09 198.96 107.26C200.65 108.44 202.93 108.23 204.38 106.78L255.22 54.46C256.44 53.24 256.8 51.43 256.14 49.84L256.15 49.85Z" fill="url(#paint0_linear_1_13)"></path>
<path d="M212.06 47.55H230.87L235.35 47.49L257.73 7.01C258.21 5.37 257.66 3.57 256.26 2.48C255.52 1.91 254.6 1.59 253.66 1.59C252.59 1.59 251.57 1.99 250.78 2.71L209.18 40.19C207.88 41.38 207.46 43.21 208.11 44.85C208.75 46.49 210.3 47.54 212.06 47.54V47.55Z" fill="url(#paint1_linear_1_13)"></path>
</g>
<defs>
<linearGradient id="paint0_linear_1_13" x1="226.81" y1="108.04" x2="226.81" y2="47.24" gradientUnits="userSpaceOnUse">
<stop stop-color="#48D092"></stop>
<stop offset="0.04" stop-color="#3AD8A6"></stop>
<stop offset="0.11" stop-color="#28E4C1"></stop>
<stop offset="0.2" stop-color="#19EED8"></stop>
<stop offset="0.29" stop-color="#0EF5E9"></stop>
<stop offset="0.41" stop-color="#05FBF5"></stop>
<stop offset="0.56" stop-color="#01FEFD"></stop>
<stop offset="0.95" stop-color="#00FFFF"></stop>
</linearGradient>
<linearGradient id="paint1_linear_1_13" x1="232.85" y1="47.55" x2="232.85" y2="1.59" gradientUnits="userSpaceOnUse">
<stop stop-color="#48D092"></stop>
<stop offset="0.04" stop-color="#3AD8A6"></stop>
<stop offset="0.11" stop-color="#28E4C1"></stop>
<stop offset="0.2" stop-color="#19EED8"></stop>
<stop offset="0.29" stop-color="#0EF5E9"></stop>
<stop offset="0.41" stop-color="#05FBF5"></stop>
<stop offset="0.56" stop-color="#01FEFD"></stop>
<stop offset="0.95" stop-color="#00FFFF"></stop>
</linearGradient>
<clipPath id="clip0_1_13">
<rect width="597.81" height="108.78" fill="white"></rect>
</clipPath>
</defs>
</svg>