<svg width="606" height="115" viewBox="0 0 606 115" fill="none" xmlns="http://www.w3.org/2000/svg">
<path d="M95.806 1C93.9045 1 92.3118 1.66681 91.0279 3.0167C89.744 4.36658 89.0939 5.96042 89.0939 7.79821V47.1726C89.0939 48.5712 87.9563 49.7097 86.5586 49.7097H16.0246C14.6269 49.7097 13.4892 48.5712 13.4892 47.1726V7.79821C13.4892 5.96042 12.8229 4.36658 11.5227 3.0167C10.2063 1.66681 8.62986 1 6.79337 1C4.95688 1 3.36418 1.66681 2.01526 3.0167C0.666335 4.36658 0 5.96042 0 7.79821V106.681C0 108.519 0.666335 110.113 2.01526 111.463C3.36418 112.813 4.95688 113.48 6.79337 113.48C8.62986 113.48 10.2063 112.813 11.5227 111.463C12.8391 110.113 13.4892 108.519 13.4892 106.681V65.7457C13.4892 64.347 14.6269 63.2085 16.0246 63.2085H86.5748C87.9725 63.2085 89.1102 64.347 89.1102 65.7457V106.681C89.1102 108.519 89.7602 110.113 91.0442 111.463C92.3281 112.813 93.9208 113.48 95.8223 113.48C97.7238 113.48 99.2515 112.813 100.6 111.463C101.949 110.113 102.616 108.519 102.616 106.681V7.79821C102.616 5.96042 101.933 4.36658 100.6 3.0167C99.2515 1.66681 97.6588 1 95.8223 1L95.806 1Z" fill="white"></path>
<path d="M465.135 0.999996C461.527 0.999996 458.796 2.46373 456.96 5.40745L416.362 66.9817C415.355 68.4942 413.144 68.4942 412.137 66.9817L371.441 5.40745C369.41 2.36614 366.826 0.902414 363.689 0.999996C360.065 1.11384 357.205 4.15515 357.205 7.79821V106.681C357.205 110.341 360.114 113.415 363.77 113.48C368.386 113.561 370.694 111.3 370.694 106.681V36.959C370.694 34.4544 373.928 33.4623 375.326 35.544L406.578 82.0907C408.529 84.9693 410.804 86.4005 413.372 86.4005C416.866 86.4005 419.58 84.9693 421.547 82.0907L452.604 35.8205C454.002 33.7388 457.236 34.7309 457.236 37.2355V106.681C457.236 110.341 460.145 113.415 463.802 113.48C468.418 113.561 470.725 111.3 470.725 106.681V7.79821C470.742 3.26065 468.873 0.999996 465.135 0.999996Z" fill="white"></path>
<path d="M598.207 99.9644H540.626C539.228 99.9644 538.09 98.826 538.09 97.4273V65.9083C538.09 64.5096 539.228 63.3712 540.626 63.3712H576.543C580.199 63.3712 583.271 60.46 583.336 56.8007C583.417 52.1818 581.158 49.8723 576.543 49.8723H540.626C539.228 49.8723 538.09 48.7339 538.09 47.3352V17.036C538.09 15.6373 539.228 14.4988 540.626 14.4988H598.207C601.863 14.4988 604.935 11.5877 605 7.92832C605.081 3.30944 602.806 1 598.207 1H531.394C527.64 1 524.601 4.04131 524.601 7.79821V106.681C524.601 110.438 527.64 113.48 531.394 113.48H598.207C601.863 113.48 604.935 110.568 605 106.909C605.081 102.29 602.822 99.9807 598.207 99.9807V99.9644Z" fill="white"></path>
<path d="M276.692 112.813L274.319 111.138C272.759 110.032 272.352 107.901 273.409 106.324C283.42 91.3284 291.058 73.2595 293.561 58.3945C293.675 57.7277 293.675 56.8169 293.561 56.1664C291.058 41.2688 283.42 23.1674 273.409 8.15599C272.352 6.57841 272.759 4.43161 274.319 3.34194L276.692 1.66678C278.317 0.512063 280.576 0.951182 281.681 2.61008C292.586 18.9063 300.631 38.0649 303.394 54.5075C303.703 56.2639 303.703 58.3132 303.394 60.0859C300.631 76.4797 292.602 95.622 281.697 111.902C280.592 113.561 278.333 113.984 276.708 112.829L276.692 112.813Z" fill="white"></path>
<path d="M182.543 112.813C180.918 113.967 178.659 113.528 177.554 111.869C166.649 95.5733 158.604 76.4147 155.841 59.9721C155.532 58.2156 155.532 56.1664 155.841 54.3774C158.604 37.9836 166.633 18.8413 177.538 2.5776C178.643 0.918705 180.902 0.495849 182.527 1.65057L184.9 3.32573C186.46 4.43166 186.866 6.5622 185.81 8.13978C175.799 23.1186 168.16 41.2038 165.657 56.0688C165.544 56.7356 165.544 57.6464 165.657 58.2807C168.16 73.1945 175.799 91.2959 185.826 106.291C186.883 107.869 186.476 110.015 184.916 111.105L182.543 112.78V112.813Z" fill="white"></path>
<path d="M259.871 52.442C259.172 50.7668 257.547 49.6772 255.727 49.6772H229.837L222.101 63.6639H222.182L197.918 107.641C197.008 109.609 197.642 111.951 199.429 113.203C201.217 114.455 203.622 114.228 205.166 112.699L258.912 57.3536C260.196 56.0688 260.586 54.1497 259.887 52.4583L259.871 52.442Z" fill="url(#paint0_linear_1_107)"></path>
<path d="M213.26 50.0025H233.152L237.898 49.9374L261.561 7.11516C262.065 5.37495 261.48 3.4721 260.001 2.31738C259.221 1.71562 258.246 1.37408 257.254 1.37408C256.133 1.37408 255.044 1.79694 254.215 2.56133L210.237 42.2122C208.872 43.4645 208.417 45.4161 209.099 47.1401C209.782 48.864 211.423 49.9862 213.276 49.9862L213.26 50.0025Z" fill="url(#paint1_linear_1_107)"></path>
<defs>
<linearGradient id="paint0_linear_1_107" x1="228.862" y1="114" x2="228.862" y2="49.6772" gradientUnits="userSpaceOnUse">
<stop stop-color="#48D092"></stop>
<stop offset="0.04" stop-color="#3AD8A6"></stop>
<stop offset="0.11" stop-color="#28E4C1"></stop>
<stop offset="0.2" stop-color="#19EED8"></stop>
<stop offset="0.29" stop-color="#0EF5E9"></stop>
<stop offset="0.41" stop-color="#05FBF5"></stop>
<stop offset="0.56" stop-color="#01FEFD"></stop>
<stop offset="0.95" stop-color="#00FFFF"></stop>
</linearGradient>
<linearGradient id="paint1_linear_1_107" x1="235.249" y1="50.0025" x2="235.249" y2="1.37408" gradientUnits="userSpaceOnUse">
<stop stop-color="#48D092"></stop>
<stop offset="0.04" stop-color="#3AD8A6"></stop>
<stop offset="0.11" stop-color="#28E4C1"></stop>
<stop offset="0.2" stop-color="#19EED8"></stop>
<stop offset="0.29" stop-color="#0EF5E9"></stop>
<stop offset="0.41" stop-color="#05FBF5"></stop>
<stop offset="0.56" stop-color="#01FEFD"></stop>
<stop offset="0.95" stop-color="#00FFFF"></stop>
</linearGradient>
</defs>
</svg>